<svg xmlns="http://www.w3.org/2000/svg" data-name="Layer 1" width="824.77942" height="512.17057" viewBox="0 0 824.77942 512.17057" xmlns:xlink="http://www.w3.org/1999/xlink"><path d="M832.64651,228.39891h-465.293a1.807,1.807,0,0,1,0-3.61318h465.293a1.807,1.807,0,0,1,0,3.61318Z" transform="translate(-187.61029 -193.91472)" fill="#cacaca"/><ellipse cx="210.66752" cy="10.82345" rx="10.58751" ry="10.82345" fill="#3f3d56"/><ellipse cx="247.24253" cy="10.82345" rx="10.58751" ry="10.82345" fill="#3f3d56"/><ellipse cx="283.81755" cy="10.82345" rx="10.58751" ry="10.82345" fill="#3f3d56"/><path d="M810.62524,196.59742h-25.981a1.96761,1.96761,0,0,0,0,3.93445h25.981a1.96761,1.96761,0,0,0,0-3.93445Z" transform="translate(-187.61029 -193.91472)" fill="#3f3d56"/><path d="M810.62524,203.98179h-25.981a1.96761,1.96761,0,0,0,0,3.93445h25.981a1.96761,1.96761,0,0,0,0-3.93445Z" transform="translate(-187.61029 -193.91472)" fill="#3f3d56"/><path d="M810.62524,211.35646h-25.981a1.96762,1.96762,0,0,0,0,3.93446h25.981a1.96762,1.96762,0,0,0,0-3.93446Z" transform="translate(-187.61029 -193.91472)" fill="#3f3d56"/><rect x="530.94391" y="60.01743" width="43.78725" height="9.36339" rx="4.68169" fill="#63ff6b"/><rect x="508.70587" y="78.74421" width="88.26334" height="9.36339" rx="4.68169" fill="#e6e6e6"/><rect x="508.70587" y="97.47098" width="88.26334" height="9.36339" rx="4.68169" fill="#e6e6e6"/><path d="M579.53769,427.67417c-1.0192,0-1.59813-.19988-1.82232-.62845-.32893-.62905-2.42925-1.45077-1.76839-2.40275.461-.66326,1.57355-1.5516,1.14526-2.063-1.65014-1.97027-5.76945-58.48366-6.74-66.19345a15.36241,15.36241,0,0,1,.9442-7.03417c2.71937-7.70464,6.43124-10.07258,13.82585-14.78924q.90036-.57443,1.87514-1.19987c.84063-.54021.79382.72142.7443-1.17533-.05493-2.108-.11195-4.28809.92076-5.65062l.06723-.08884.10834-.02521c2.49788-.57743,10.8991-1.64945,15.87446.0078l.06873.02341.05132.051c1.18186,1.18187,1.2896,3.47117,1.39375,5.68484.08523,1.81752.166.48086.83462,1.22635,2.556,2.849,6.407,4.49518,9.61907,5.42908a9.41207,9.41207,0,0,1,6.8088,9.34925c-.34833,10.54718-.07446,27.2248-1.87473,38.9777-2.99619,19.56041,24.35763,47.80867,8.69029,48.389a.401.401,0,0,1,.01261.41537C629.19873,438.06653,583.37921,427.67417,579.53769,427.67417Zm50.25227,8.2237Z" transform="translate(-187.61029 -193.91472)" fill="#3f3d56"/><circle cx="407.78387" cy="112.26259" r="18.67579" fill="#2f2e41"/><circle cx="408.9072" cy="119.06392" r="13.42138" fill="#ffb6b6"/><path d="M596.64723,292.51023l-5.44068.15417a12.95,12.95,0,0,0-12.568,13.29621l.00342.12049.09914.06213a17.17087,17.17087,0,0,0,9.992,2.84291l.30586-.00867,3.00622-.13619a8.30531,8.30531,0,0,0,.49153-4.09539,27.626,27.626,0,0,1,1.06019,4.02359l13.48855-.6141a3.01239,3.01239,0,0,0,2.86245-3.08193A12.95,12.95,0,0,0,596.64723,292.51023Z" transform="translate(-187.61029 -193.91472)" fill="#2f2e41"/><path d="M585.80547,289.14247c-1.22791,1.51432-3.19977,2.14531-4.97145,2.96544a21.25917,21.25917,0,0,0-11.90591,15.87477c-.41745,2.78072-.27144,5.64288-.97821,8.36225-.70214,2.71923-2.555,5.42006-5.30845,5.96652-1.8632.37282-3.76057-.29695-5.54183-.96075q-1.46942-.54273-2.93894-1.09013,1.40767-3.84541,2.8107-7.69067a38.55458,38.55458,0,0,1-5.42607,6.72586q-5.26612-1.95183-10.54154-3.90339c8.55587-.21,6.86074-8.47327,8.53861-16.86.92226-4.60851,9.79251-7.9627,11.4255-12.36873a13.332,13.332,0,0,1,24.13816-1.89913C586.88229,284.91454,587.01073,287.64735,585.80547,289.14247Z" transform="translate(-187.61029 -193.91472)" fill="#2f2e41"/><circle cx="399.05066" cy="93.82766" r="6.95426" fill="#2f2e41"/><path d="M381.50164,507.99678H359.77021c-.584,0-3.801-1.70175-3.801-3.801v-12.072c-.10393-9.13106,29.78879-9.72873,29.90155,0v12.072C385.8708,506.295,383.60085,507.99678,381.50164,507.99678Z" transform="translate(-187.61029 -193.91472)" fill="#e6e6e6"/><path d="M382.62615,483.941a8.31752,8.31752,0,0,0-3.29132-.47174,2.23293,2.23293,0,0,0,.80588-.47223,3.26609,3.26609,0,0,1-.60654-.08172,1.41836,1.41836,0,0,1-.60312-.26983.67049.67049,0,0,1-.2529-.58648c.04062-.27612.29862-.50344.27213-.78126-.03036-.3184-.39774-.47335-.59435-.72563a1.03454,1.03454,0,0,1,.10374-1.24116,2.1385,2.1385,0,0,1,.67238-.52266,2.51135,2.51135,0,0,0-1.32.01913,1.46224,1.46224,0,0,0,.52141-1.51926,2.23265,2.23265,0,0,0-1.54173-1.42863,6.59069,6.59069,0,0,0-2.17509-.17566c.62028-.19057.52676-1.16231.05264-1.60533s-1.15225-.628-1.59935-1.09828-.41093-1.47419.23324-1.55229l-.07919-.22917a2.4796,2.4796,0,0,0-3.28963,1.79232c-.118.7353.10188,1.54866-.26706,2.19557-.47038.82478-1.61219.91809-2.55726.82667a3.66915,3.66915,0,0,0-2.74222.37428,1.61759,1.61759,0,0,0,1.07989,2.85986,7.49362,7.49362,0,0,0-1.84244.24319l.57949.22459a.95148.95148,0,0,1,.349.196.32484.32484,0,0,1,.07789.36824c-.09266.168-.33205.1622-.52177.13366l-1.25984-.18953a.47831.47831,0,1,1-.47584.80518,1.83982,1.83982,0,0,1,.308.50657.62277.62277,0,0,1-.05849.56923.81241.81241,0,0,1-.93817.11421c-.10256-.03942-.20575-.08534-.30971-.12734.00208.03645.00486.07294.00912.10949a1.74377,1.74377,0,0,0,.74329,1.19224,2.31227,2.31227,0,0,0-1.47506.77677,2.35285,2.35285,0,0,0-.09707,2.82155,4.11158,4.11158,0,0,0-2.02432-.33539,1.41317,1.41317,0,0,0-1.24049,1.4112c.11469.87821,1.20216,1.19932,2.08111,1.30819a85.10552,85.10552,0,0,0,20.81268-.0025,7.75106,7.75106,0,0,0,2.71365-.69034,2.79367,2.79367,0,0,0,1.57758-2.18273A2.83451,2.83451,0,0,0,382.62615,483.941Z" transform="translate(-187.61029 -193.91472)" fill="#63ff6b"/><path d="M387.75641,494.11462a1.50028,1.50028,0,0,0-1.46892-1.16308c-.668.01756-1.26508.49459-1.921.39016-.54469-.08672-.97255-.56219-1.52036-.4896-.5017.06648-.77144.55681-1.14605.82058h-.96094c-.37411-.29448-.55794-.89114-1.07679-1.05843-.78158-.252-1.40863.62992-2.22718.78594a2.37174,2.37174,0,0,1-1.37367-.26231,4.10406,4.10406,0,0,0-1.32319-.448,1.09165,1.09165,0,0,0-1.06678.46843c.02544-.24955-.29884-.49425-.62815-.51a2.09356,2.09356,0,0,0-1.03742.31956,1.95991,1.95991,0,0,1-1.04377.29856c-.81774-.07122-1.21873-1.02669-2.041-1.03709-1.035-.01309-1.44908,1.46125-2.47261,1.33558-.53223-.06535-.81945-.54861-1.294-.75529a2.72135,2.72135,0,0,0-1.54773-.01511l-2.42078.45317a4.22938,4.22938,0,0,1-2.17115.02131c-.51925-.18786-1.0236-.5947-1.559-.43985-.46634.13486-.694.65719-1.18778.68433a2.32834,2.32834,0,0,1-.89316-.30567,1.37681,1.37681,0,0,0-1.47989.37329,8.3934,8.3934,0,0,0-.129,3.3733,3.26586,3.26586,0,0,0,.05643.71316l2.43475,9.74323c.28626,1.49428,1.02515,2.57473,2.5466,2.57473h23.6641a3.17144,3.17144,0,0,0,3.1148-2.57473l2.43474-9.74323c.00483-.02524.00795-.05032.01217-.0755A13.68608,13.68608,0,0,0,387.75641,494.11462Z" transform="translate(-187.61029 -193.91472)" fill="#ccc"/><path d="M358.82335,493.38138l.47313,6.15c.15771,2.05-.07574,4.07155.082,6.12156.08882,1.1546.5688,2.33766.65763,3.49226.01045.13585.22361.137.21308,0l-.47313-6.15-.47313-6.15-.26648-3.46381c-.01045-.13584-.22361-.137-.21307,0Z" transform="translate(-187.61029 -193.91472)" opacity="0.2" style="isolation:isolate"/><path d="M362.933,493.62487l.18437,6.06033.18437,6.06033.1035,3.40229c.00416.13679.21726.13738.21308,0l-.18437-6.06033-.18437-6.06033-.10351-3.40229C363.14187,493.48807,362.92878,493.48749,362.933,493.62487Z" transform="translate(-187.61029 -193.91472)" opacity="0.2" style="isolation:isolate"/><path d="M366.91436,493.98843l-.05607,5.85687-.05573,5.82137-.03161,3.30115a.1066.1066,0,0,0,.21308,0l.05607-5.85687.05573-5.82137.03161-3.30115a.1066.1066,0,0,0-.21308,0Z" transform="translate(-187.61029 -193.91472)" opacity="0.2" style="isolation:isolate"/><path d="M369.92211,493.80926l.11661,5.9292.11592,5.8937.06563,3.3374a.1066.1066,0,0,0,.21308,0l-.11661-5.9292-.11592-5.8937-.06563-3.3374a.1066.1066,0,0,0-.21308,0Z" transform="translate(-187.61029 -193.91472)" opacity="0.2" style="isolation:isolate"/><path d="M374.30548,493.56579l.13332,6.08733.13332,6.08734.07462,3.40748a.1066.1066,0,0,0,.21308,0l-.13332-6.08733-.13332-6.08733-.07463-3.40749A.1066.1066,0,0,0,374.30548,493.56579Z" transform="translate(-187.61029 -193.91472)" opacity="0.2" style="isolation:isolate"/><path d="M377.94425,493.75035l.4647,6.13349.46337,6.11581.26114,3.44678c.0103.13588.22346.137.21308,0l-.4647-6.13349-.46337-6.11582-.26115-3.44677C378.147,493.61447,377.93387,493.61336,377.94425,493.75035Z" transform="translate(-187.61029 -193.91472)" opacity="0.2" style="isolation:isolate"/><path d="M381.98761,494.46513l.2802,5.61206c.09339,1.87069-.3814,3.74138-.288,5.61207l.15734,3.15125c.00681.13647.21993.13729.21307,0-.09339-1.87068.3814-3.74137.288-5.61206l-.28019-5.61206-.15734-3.15126C382.19387,494.32866,381.98075,494.32785,381.98761,494.46513Z" transform="translate(-187.61029 -193.91472)" opacity="0.2" style="isolation:isolate"/><ellipse cx="182.03128" cy="284.60667" rx="0.81679" ry="0.5682" fill="#e6e6e6"/><ellipse cx="187.21611" cy="285.88512" rx="0.81679" ry="0.5682" fill="#3f3d56"/><ellipse cx="179.97155" cy="288.6551" rx="0.81679" ry="0.5682" fill="#ff6584"/><ellipse cx="186.72575" cy="289.61308" rx="0.51621" ry="0.3591" fill="#e6e6e6"/><ellipse cx="190.00257" cy="290.42106" rx="0.51621" ry="0.3591" fill="#3f3d56"/><ellipse cx="185.42401" cy="292.17169" rx="0.51621" ry="0.3591" fill="#ff6584"/><ellipse cx="191.55546" cy="291.60178" rx="0.51621" ry="0.3591" fill="#e6e6e6"/><ellipse cx="194.83227" cy="292.40977" rx="0.51621" ry="0.3591" fill="#3f3d56"/><ellipse cx="190.25371" cy="294.16039" rx="0.51621" ry="0.3591" fill="#ff6584"/><ellipse cx="365.50374" cy="483.93241" rx="0.51621" ry="0.3591" transform="translate(-351.3988 586.04687) rotate(-82.15499)" fill="#e6e6e6"/><ellipse cx="364.25606" cy="487.06826" rx="0.51621" ry="0.3591" transform="translate(-355.58268 587.5187) rotate(-82.15499)" fill="#3f3d56"/><ellipse cx="363.14676" cy="482.2936" rx="0.51621" ry="0.3591" transform="translate(-351.8106 582.29683) rotate(-82.15499)" fill="#ff6584"/><ellipse cx="371.11472" cy="482.2278" rx="0.51621" ry="0.3591" transform="translate(-344.86503 590.1334) rotate(-82.15499)" fill="#e6e6e6"/><ellipse cx="369.86704" cy="485.36366" rx="0.51621" ry="0.3591" transform="translate(-349.04892 591.60523) rotate(-82.15499)" fill="#3f3d56"/><ellipse cx="368.75774" cy="480.589" rx="0.51621" ry="0.3591" transform="translate(-345.27684 586.38337) rotate(-82.15499)" fill="#ff6584"/><ellipse cx="372.63701" cy="478.75833" rx="0.51621" ry="0.3591" transform="matrix(0.13649, -0.99064, 0.99064, 0.13649, -340.11352, 588.64554)" fill="#3f3d56"/><ellipse cx="371.52772" cy="473.98367" rx="0.51621" ry="0.3591" transform="translate(-336.34143 583.42368) rotate(-82.15499)" fill="#ff6584"/><path d="M680.36824,685.42617H479.31612c-5.40307,0-35.16523-15.744-35.16523-35.16524V538.57455c-.96153-84.47758,275.59614-90.00707,276.63939,0V650.26093C720.79028,669.68218,699.78944,685.42617,680.36824,685.42617Z" transform="translate(-187.61029 -193.91472)" fill="#e6e6e6"/><path d="M690.77184,462.86959c-9.46339-4.13843-20.12175-4.28492-30.45019-4.36441a20.65848,20.65848,0,0,0,7.45571-4.36889,30.21935,30.21935,0,0,1-5.6115-.75612,13.12173,13.12173,0,0,1-5.57986-2.49634,6.203,6.203,0,0,1-2.33976-5.42593c.37579-2.55457,2.76276-4.65762,2.51763-7.228-.28091-2.94568-3.67971-4.37928-5.49869-6.71322-2.54907-3.2707-1.64468-8.256.9597-11.48284a19.78523,19.78523,0,0,1,6.22068-4.83549,23.234,23.234,0,0,0-12.21239.177,13.52815,13.52815,0,0,0,4.8239-14.05571c-1.77887-6.52489-7.80913-11.19783-14.26359-13.21726s-13.36336-1.8319-20.12322-1.6251c5.7386-1.76307,4.87347-10.75333.48705-14.852s-10.66024-5.81009-14.79672-10.16092c-4.13648-4.35077-3.80179-13.63878,2.15788-14.36133l-.73266-2.12017c-12.20265-5.3598-28.32187,3.42257-30.43455,16.58193-1.09209,6.80279.94254,14.32768-2.47078,20.31269-4.35177,7.63062-14.91539,8.49386-23.65892,7.64814-8.74348-.84569-18.62072-2.15956-25.37008,3.4627a14.96547,14.96547,0,0,0,9.99074,26.4585,69.32744,69.32744,0,0,0-17.04563,2.24992q2.6806,1.03888,5.36124,2.07782a8.80245,8.80245,0,0,1,3.22887,1.81294,3.00537,3.00537,0,0,1,.72059,3.40683c-.85723,1.55428-3.072,1.50065-4.82726,1.23659l-11.65566-1.75348a4.42516,4.42516,0,1,1-4.4023,7.44925,17.02063,17.02063,0,0,1,2.85,4.68666,5.76154,5.76154,0,0,1-.54116,5.26631c-1.88371,2.50618-5.75332,2.18162-8.67965,1.05662-.94879-.36469-1.90344-.78953-2.86527-1.17808.01925.33717.04492.67478.08438,1.013A16.13274,16.13274,0,0,0,500.947,457.8014a21.39241,21.39241,0,0,0-13.64675,7.18642,21.76773,21.76773,0,0,0-.8981,26.104c-6.04882-2.09431-12.42515-4.21854-18.72829-3.10294s-12.30568,6.70877-11.47668,13.056c1.06113,8.125,11.122,11.09576,19.2538,12.103a787.36954,787.36954,0,0,0,192.552-.02314c8.62108-1.05908,17.42949-2.32267,25.10583-6.38684,7.67641-4.06412,14.11687-11.5212,14.5953-20.19385C708.27308,476.231,700.23526,467.008,690.77184,462.86959Z" transform="translate(-187.61029 -193.91472)" fill="#63ff6b"/><path d="M738.23533,556.9929a13.88016,13.88016,0,0,0-13.59-10.76038c-6.18045.16247-11.70409,4.57576-17.77272,3.6096-5.03931-.80233-8.99776-5.20118-14.0659-4.52962-4.64158.615-7.13715,5.15141-10.60289,7.59175h-8.89031c-3.46113-2.72448-5.16192-8.24454-9.96207-9.79226-7.231-2.3315-13.03221,5.82778-20.60515,7.27122-4.3362.82651-8.80167-.6874-12.70878-2.42677s-7.80985-3.78775-12.24171-4.14512c-4.01355-.32367-8.5926,1.34888-9.86951,4.33374.23535-2.30877-2.7648-4.57261-5.81147-4.71828-3.475-.1661-6.658,1.43972-9.59787,2.95654-2.93978,1.51682-6.19541,3.06361-9.65662,2.76217-7.56544-.65888-11.27531-9.49864-18.883-9.59485-9.57532-.1211-13.40643,13.519-22.87572,12.35635-4.924-.60462-7.58132-5.07557-11.97187-6.98767-4.30629-1.87541-9.5592-1.03087-14.31909-.13983l-22.39625,4.1926c-6.64753,1.24444-13.85386,2.45206-20.08681.19713-4.80393-1.73795-9.47-5.5019-14.42373-4.06932-4.31439,1.2477-6.42061,6.0801-10.98895,6.33123-3.0257.1663-5.49424-1.82169-8.26321-2.828-4.7645-1.73153-10.96581-.16731-13.69147,3.45353-2.14725,2.85247-2.939,21.93374-1.19348,31.20871a30.21433,30.21433,0,0,0,.5221,6.59792l22.52549,90.14119c2.64842,13.82454,9.48435,23.82054,23.56029,23.82054H689.3072a29.34114,29.34114,0,0,0,28.81709-23.82054l22.52547-90.14123c.04468-.23346.07348-.46552.11258-.69849C742.37088,582.67838,739.29309,562.28847,738.23533,556.9929Z" transform="translate(-187.61029 -193.91472)" fill="#ccc"/><path d="M470.55607,550.20925l4.37724,56.898c1.45908,18.966-.7007,37.66862.75839,56.63463.82178,10.682,5.2624,21.62733,6.0842,32.3093.09667,1.25681,2.06878,1.26728,1.9713,0l-4.37724-56.898-4.37723-56.898-2.46535-32.046c-.09668-1.25679-2.06878-1.26726-1.97131,0Z" transform="translate(-187.61029 -193.91472)" opacity="0.2" style="isolation:isolate"/><path d="M508.57685,552.46194l1.70572,56.06817,1.70574,56.06816.9576,31.47687c.0385,1.26559,2.01,1.271,1.9713,0L513.21149,640.007l-1.70574-56.06817-.9576-31.47686C510.50965,551.19633,508.53819,551.19091,508.57685,552.46194Z" transform="translate(-187.61029 -193.91472)" opacity="0.2" style="isolation:isolate"/><path d="M545.41149,555.82547l-.51877,54.18584-.51561,53.85743-.29242,30.54111a.98625.98625,0,0,0,1.97131,0l.51877-54.18582.51561-53.85744.29241-30.5411a.98624.98624,0,0,0-1.9713,0Z" transform="translate(-187.61029 -193.91472)" opacity="0.2" style="isolation:isolate"/><path d="M573.23824,554.16788l1.07882,54.855,1.0724,54.52657.60725,30.87651a.98625.98625,0,0,0,1.9713,0l-1.07885-54.855-1.07241-54.52657-.60724-30.87651a.98625.98625,0,0,0-1.97131,0Z" transform="translate(-187.61029 -193.91472)" opacity="0.2" style="isolation:isolate"/><path d="M613.79167,551.91537l1.23343,56.318,1.23343,56.318.69043,31.52495a.98625.98625,0,0,0,1.9713,0l-1.23343-56.318-1.23343-56.318-.69043-31.52495A.98625.98625,0,0,0,613.79167,551.91537Z" transform="translate(-187.61029 -193.91472)" opacity="0.2" style="isolation:isolate"/><path d="M647.45641,553.62281l4.29927,56.745,4.28692,56.58153,2.416,31.88844c.09525,1.25709,2.06731,1.26743,1.9713,0l-4.29927-56.745-4.28692-56.58153-2.416-31.88844C649.33246,552.36574,647.3604,552.3554,647.45641,553.62281Z" transform="translate(-187.61029 -193.91472)" opacity="0.2" style="isolation:isolate"/><path d="M684.86423,560.23575l2.5923,51.921c.86409,17.307-3.52858,34.614-2.6645,51.921l1.45562,29.15436c.063,1.26258,2.03471,1.27012,1.9713,0-.86409-17.307,3.52859-34.614,2.66446-51.921l-2.59227-51.92094-1.45561-29.15437C686.77248,558.97319,684.80082,558.96565,684.86423,560.23575Z" transform="translate(-187.61029 -193.91472)" opacity="0.2" style="isolation:isolate"/><ellipse cx="383.03246" cy="218.81468" rx="7.55666" ry="5.25681" fill="#e6e6e6"/><ellipse cx="431.00081" cy="230.64249" rx="7.55666" ry="5.2568" fill="#3f3d56"/><ellipse cx="363.97654" cy="256.26941" rx="7.55666" ry="5.25681" fill="#ff6584"/><ellipse cx="426.46419" cy="265.13239" rx="4.77581" ry="3.3223" fill="#e6e6e6"/><ellipse cx="456.78018" cy="272.60757" rx="4.77581" ry="3.3223" fill="#3f3d56"/><ellipse cx="414.42085" cy="288.80379" rx="4.77581" ry="3.3223" fill="#ff6584"/><ellipse cx="471.14704" cy="283.53121" rx="4.77581" ry="3.3223" fill="#e6e6e6"/><ellipse cx="501.46303" cy="291.00639" rx="4.77581" ry="3.3223" fill="#3f3d56"/><ellipse cx="459.10369" cy="307.20261" rx="4.77581" ry="3.3223" fill="#ff6584"/><ellipse cx="532.36088" cy="462.79041" rx="4.77581" ry="3.3223" transform="matrix(0.13649, -0.99064, 0.99064, 0.13649, -186.37249, 733.08614)" fill="#e6e6e6"/><ellipse cx="520.81773" cy="491.80231" rx="4.77581" ry="3.3223" transform="translate(-225.08046 746.70298) rotate(-82.15499)" fill="#3f3d56"/><ellipse cx="510.55486" cy="447.62875" rx="4.77581" ry="3.3223" transform="translate(-190.18237 698.39201) rotate(-82.15499)" fill="#ff6584"/><ellipse cx="584.27184" cy="447.01996" rx="4.77581" ry="3.3223" transform="translate(-125.9242 770.89338) rotate(-82.15499)" fill="#e6e6e6"/><ellipse cx="572.72868" cy="476.03193" rx="4.77581" ry="3.3223" transform="translate(-164.63224 784.51027) rotate(-82.15499)" fill="#3f3d56"/><ellipse cx="562.46581" cy="431.85834" rx="4.77581" ry="3.3223" transform="translate(-129.73413 736.19928) rotate(-82.15499)" fill="#ff6584"/><path d="M767.585,686.99176a2.37427,2.37427,0,0,0,1.72072-4.11519c-.05988-.238-.10284-.4088-.16268-.64679a6.37875,6.37875,0,0,1,11.82577-.11154c2.8139,6.58641,6.4557,13.40488,4.64455,20.65933,11.96317-25.35448,7.89479-56.89311-9.78513-78.57587a19.46009,19.46009,0,0,1-9.87909-13.02847c2.41861.81949,5.43412-1.1478,3.61562-3.69543-.78825-.9737-1.58411-1.9397-2.37228-2.91344,9.18738-9.78448,20.134,5.59326,10.02134,18.79932a76.12285,76.12285,0,0,1,8.54973,13.37319,32.00677,32.00677,0,0,1,1.91086-14.86654c1.829-4.41229,5.25721-8.12834,8.27617-11.94276a6.57046,6.57046,0,0,1,11.7192,3.39451c-3.38753,1.11343-3.82762,6.00667.04733,6.67637a32.76794,32.76794,0,0,1-18.056,25.86764,76.42,76.42,0,0,1,4.17614,31.94258c1.7427-12.64919,15.32075-15.71884,24.81121-20.74628a3.69685,3.69685,0,0,1,5.638,3.74448,21.35222,21.35222,0,0,0-3.74271,1.97451,3.22717,3.22717,0,0,0,1.49925,5.89121c-4.78379,11.83964-17.15184,19.79006-29.85453,19.7453a78.56458,78.56458,0,0,1-5.27762,15.40706H768.05745c-.06762-.20948-.12842-.42577-.18926-.63525a21.42052,21.42052,0,0,0,5.21682-.31082c-4.617-5.46648-8.18769-8.25539-5.50057-15.88684Z" transform="translate(-187.61029 -193.91472)" fill="#f2f2f2"/><path d="M398.43075,686.70953a2.37426,2.37426,0,0,1-1.72072-4.11518l.16269-.6468A6.37874,6.37874,0,0,0,385.047,681.836c-2.81388,6.58636-6.4557,13.40487-4.64455,20.65932-11.96317-25.35448-7.89479-56.89307,9.78514-78.57587a19.46021,19.46021,0,0,0,9.87911-13.02847c-2.41858.81949-5.43411-1.1478-3.61561-3.69543.78822-.9737,1.58411-1.9397,2.37226-2.91344-9.1874-9.78448-20.134,5.59326-10.02135,18.79932a76.1238,76.1238,0,0,0-8.54974,13.37323,32.007,32.007,0,0,0-1.91085-14.86654c-1.829-4.41229-5.25722-8.12833-8.27618-11.94276a6.57046,6.57046,0,0,0-11.71919,3.39455c3.38754,1.11343,3.82762,6.00668-.04731,6.67637a32.76788,32.76788,0,0,0,18.056,25.86764,76.42,76.42,0,0,0-4.17612,31.94258c-1.74268-12.64919-15.32076-15.7188-24.81121-20.74628a3.69685,3.69685,0,0,0-5.638,3.74448,21.35271,21.35271,0,0,1,3.74273,1.97451,3.22718,3.22718,0,0,1-1.49925,5.89121c4.78378,11.83968,17.15183,19.79006,29.85452,19.74531A78.56514,78.56514,0,0,0,379.105,703.5428h18.85332c.06762-.20948.12842-.42577.18924-.63524a21.42046,21.42046,0,0,1-5.21682-.31083c4.617-5.46648,8.18769-8.25539,5.50059-15.88684Z" transform="translate(-187.61029 -193.91472)" fill="#f2f2f2"/><path d="M445.66628,465.99059,443.661,454.36718l30.48766-13.76705,6.5841-11.65706a5.66782,5.66782,0,1,1,8.37092,3.76207l-10.83087,16.745Z" transform="translate(-187.61029 -193.91472)" fill="#a0616a"/><polygon points="248.789 262.573 262.518 255.561 266.153 269.208 256.616 276.277 248.789 262.573" fill="#3f3d56"/><polygon points="217.98 494.537 226.281 494.537 230.23 462.517 217.979 462.517 217.98 494.537" fill="#a0616a"/><path d="M416.654,689.199v-5.62783l-2.18241.13332-8.88379.52627-2.05607.1263-1.57184,18.84829-.0842,1.01047h5.89443l.18948-1.00346.85607-4.5612,2.21046,4.5612.48418,1.00346h15.62738a3.531,3.531,0,0,0,3.50861-3.51563C431.306,697.61971,418.31009,690.96039,416.654,689.199Z" transform="translate(-187.61029 -193.91472)" fill="#2f2e41"/><polygon points="119.64 464.649 126.427 469.429 148.096 445.527 138.079 438.471 119.64 464.649" fill="#a0616a"/><path d="M316.10727,664.93569l3.24115-4.60083-1.86091-1.14788-7.56569-4.686-1.75358-1.08087-12.14,14.50346-.65079.77758,4.81877,3.39472.7328-.71121,3.32672-3.23581-.8198,5.00185-.18208,1.09919,12.77555,9a3.531,3.531,0,0,0,4.893-.85342C323.23583,680.25792,316.44673,667.32931,316.10727,664.93569Z" transform="translate(-187.61029 -193.91472)" fill="#2f2e41"/><path d="M418.426,481.2207l-10.68529-4.995L386.43217,502.0129l-12.97931,3.28255a5.66783,5.66783,0,1,0,1.4253,9.06608l19.00587-6.03988Z" transform="translate(-187.61029 -193.91472)" fill="#a0616a"/><path d="M407.65338,522.75845s-17.53182,11.41607-12.896,19.002c.1599.26165-37.34377,52.32876-37.34377,52.32876l-42.05444,45.34,14.45622,13.142s39.95187-41.60268,46.65414-48.62545,35.97663-42.15617,35.97663-42.15617l1.07683,43.41912-11.20685,60.166,16.73311-1.06093,16.28654-60.36154,6.01161-68.37421Z" transform="translate(-187.61029 -193.91472)" fill="#2f2e41"/><path d="M420.14136,454.24351l-7.37243,5.58708-8.40312,17.93467,8.08033,10.97412s6.79692,11.7796-4.08258,23.18738-19.23383,23.5919-10.52584,23.15688,43.97646,17.50325,44.20853,2.80688.70172-25.96374.70172-25.96374l9.24659-23.45259s5.50892-13.9907,1.64115-18.17869-9.0464-9.53961-9.0464-9.53961l-9.41757-9.41757h-8.50359Z" transform="translate(-187.61029 -193.91472)" fill="#3f3d56"/><path d="M433.9039,419.78413c16.53951,9.41165,2.96141,34.24427-13.88647,25.40159C403.47846,435.77439,417.05659,410.94177,433.9039,419.78413Z" transform="translate(-187.61029 -193.91472)" fill="#a0616a"/><path d="M442.748,425.00257c-1.15891,1.5073-3.58014.80054-8.32169,1.87609a19.76608,19.76608,0,0,0-.55292-4.77186,13.43188,13.43188,0,0,1-2.26478,5.37027c-4.11719.45661.92992,12.96442-1.17814,22.16056-2.71614-19.40089-8.429-14.318-5.54288-10.46989,1.84763,2.4635.61587,9.854-4.927,6.15875-9.14552,4.3465-22.17155-17.24454-7.73473-27.3704-.258-5.4733,5.83211-6.338,9.58235-4.65515C430.90947,406.52108,441.30755,415.20839,442.748,425.00257Z" transform="translate(-187.61029 -193.91472)" fill="#2f2e41"/><path d="M400.31125,410.846c-3.68229,22.64008-23.41918-4.16373-32.69934,18.11635-2.91781,8.06854,2.08839,13.84051,5.255,20.53777.72274,5.50392-6.43743,8.29634-7.18742,13.36268-.20873,11.61513,18.53019,10.90436,23.76881,3.57625,5.38267-7.67126-1.045-17.96353,2.19038-26.1976,4.54732-11.43186,23.04035-11.51679,24.65142-24.81676C413.17,410.98157,404.78009,405.89277,400.31125,410.846Z" transform="translate(-187.61029 -193.91472)" fill="#2f2e41"/><path d="M415.22825,413.05835c-.12046.05074-.24094.10143-.34871.1585h-.00635c-.10143.05074-.2029.10143-.30433.1585-.01269.00636-.019.0127-.0317.019-.13316-.12681-.26629-.25363-.40578-.38046a1.46616,1.46616,0,0,0,.02535.62132l.019.07612c.12682.13312.25993.25993.39944.39308.12681-.09511.24727-.19654.37405-.29165.07612-.06339.1522-.12681.23462-.1902.01265-.16486.03168-.35506.05069-.5643Zm3.81685-7.05035c-2.82775-.64672-3.74077,3.04966-4.01339,4.83125-1.02712-6.467-5.30044-4.43182-3.82315-.019a9.88015,9.88015,0,0,0,2.1747,3.49984c.13315.15216.279.30432.43112.45652-.17119.88762.69111.65937,1.85768-.1585a15.53793,15.53793,0,0,0,2.3776-2.086C420.37653,410.09111,422.18987,406.82586,419.0451,406.008Zm.08877,3.6393a22.15626,22.15626,0,0,1-2.92284,3.10039q-.50411.4565-1.02712.875c-.00636.05705-.00636.10776-.01269.15216a1.16034,1.16034,0,0,1-.08878.17751c-.35506.64038-.7545.29167-.90666-.2409-.01269-.019-.03168-.03812-.04438-.05707a8.9345,8.9345,0,0,1-1.31243-1.73722c-2.61854-4.53965,1.59775-7.62735,1.38851.84957a.80308.80308,0,0,0-.07608.24728,1.46616,1.46616,0,0,0,.02535.62132l.019.07612c.12682.13312.25993.25993.39944.39308.12681-.09511.24727-.19654.37405-.29165.07612-.06339.1522-.12681.23462-.1902.01265-.16486.03168-.35506.05069-.5643V413.052c.16486-1.69918.615-4.7552,1.44563-5.58576,1.826-1.40123,4.19083.1141,2.45362,2.181Zm-3.9056,3.41105c-.12046.05074-.24094.10143-.34871.1585h-.00635c-.10143.05074-.2029.10143-.30433.1585-.01269.00636-.019.0127-.0317.019-.13316-.12681-.26629-.25363-.40578-.38046a1.46616,1.46616,0,0,0,.02535.62132l.019.07612c.12682.13312.25993.25993.39944.39308.12681-.09511.24727-.19654.37405-.29165.07612-.06339.1522-.12681.23462-.1902.01265-.16486.03168-.35506.05069-.5643Z" transform="translate(-187.61029 -193.91472)" fill="#2f2e41"/><path d="M490.41761,437.99449a5.76154,5.76154,0,0,0,.54115-5.26631,17.02063,17.02063,0,0,0-2.85-4.68666,4.42516,4.42516,0,1,0,4.4023-7.44925q5.8278.87677,11.65566,1.75349c1.75521.26406,3.97.31768,4.82727-1.2366a3.00537,3.00537,0,0,0-.72059-3.40682,8.80263,8.80263,0,0,0-3.22887-1.813q-2.68065-1.03885-5.36125-2.07782a36.47138,36.47138,0,0,0-8.36459,3.49137c-7.29156,4.2436-12.92292,12.21584-12.446,20.57013.96182.38855,1.91647.81335,2.86527,1.17808C484.66427,440.17611,488.5339,440.50065,490.41761,437.99449Z" transform="translate(-187.61029 -193.91472)" fill="#63ff6b"/><polygon points="575.914 495.867 567.795 497.714 556.805 467.275 568.789 464.549 575.914 495.867" fill="#ffb6b6"/><path d="M765.73814,698.18593l-24.96794,5.68089-.07187-.31576a9.96712,9.96712,0,0,1,7.50665-11.92952l.0006-.00012,3.77332-4.49784,9.2967,1.52408,2.17954-.49591Z" transform="translate(-187.61029 -193.91472)" fill="#2f2e41"/><polygon points="681.791 479.866 674.779 484.356 654.124 459.443 664.474 452.816 681.791 479.866" fill="#ffb6b6"/><path d="M874.33286,680.93788l-21.565,13.80661-.17462-.27268a9.96716,9.96716,0,0,1,3.01936-13.76759l.00052-.00032,2.0256-5.51044,9.26306-1.71687,1.88251-1.20523Z" transform="translate(-187.61029 -193.91472)" fill="#2f2e41"/><polygon points="570.51 344.239 564.402 360.169 535.746 416.693 560.925 482.447 573.92 479.017 563.21 416.693 593.938 379.356 611.779 417.718 663.033 474.228 674.861 466.343 636.749 407.861 611.37 333.696 570.51 344.239" fill="#2f2e41"/><path d="M788.94245,463.011,778.8871,452.2076l-17.2489-2.373-21.13494,14.79581.21288,16.377L751.164,519.59838s-3.97963,27.72575,7.136,27.44769,17.17442-5.81981,21.70169-4.69171,23.77233,5.92917,24.992.90023,7.70269-1.42814,7.4181-6.18549-17.55058-39.0493-17.55058-39.0493l3.02149-24.138a9.69079,9.69079,0,0,0-8.41209-10.8194q-.26337-.033-.5282-.05148Z" transform="translate(-187.61029 -193.91472)" fill="#3f3d56"/><path d="M858.33335,531.07785a6.15925,6.15925,0,0,1-7.43457-5.82451l-46.23223-18.20187,8.79834-7.20822,43.83031,18.97962a6.19261,6.19261,0,0,1,1.03815,12.255Z" transform="translate(-187.61029 -193.91472)" fill="#ffb6b6"/><path d="M792.85025,465.01369s-7.87595-.06065-8.84295,8.9043,15.54594,31.70182,18.09778,35.4462c.79908,1.17251,4.23282,2.5064,8.57287,3.78565,1.94844.5743,4.07953,1.13759,6.23692,1.67034,1.24843.30828,1.80647,2.37764,3.04218,2.66168,1.22894.28246,3.13583-1.22028,4.29241-.96927,5.48983,1.19137,9.82872,1.9863,9.82872,1.9863l10.264-6.995c-5.1782-7.64525-15.0834-10.7731-26.30524-12.64261Z" transform="translate(-187.61029 -193.91472)" fill="#3f3d56"/><path d="M676.96394,423.38028a6.1592,6.1592,0,0,0,8.07972,4.89033l33.3937,36.79118,3.62561-10.78074-33.27046-34.26948a6.19261,6.19261,0,0,0-11.82857,3.36873Z" transform="translate(-187.61029 -193.91472)" fill="#ffb6b6"/><path d="M761.93551,461.22657s2.84566,7.34416-5.196,11.423-35.15264-3.31279-39.558-4.37336c-1.3795-.3321-3.84286-3.071-6.57606-6.67687-1.227-1.61883-2.50849-3.41238-3.77063-5.2413-.73038-1.05839-2.86327-.84749-3.56649-1.90256-.69933-1.0493.03076-3.36476-.61351-4.35753-3.05814-4.71224-5.338-8.48848-5.338-8.48848l2.90726-12.07589c8.98352,2.13543,15.4162,10.29122,21.13836,20.12391Z" transform="translate(-187.61029 -193.91472)" fill="#3f3d56"/><circle cx="582.99645" cy="236.7599" r="16.4118" fill="#ffb6b6"/><path d="M789.341,421.27757a8.462,8.462,0,0,0-8.10655-3.95061,11.07022,11.07022,0,0,0-18.54866-6.457,3.44235,3.44235,0,0,0-3.3664-.3369,7.09807,7.09807,0,0,0-2.735,2.1953,15.93013,15.93013,0,0,0-2.22907,16.20615c-.38382-1.39534,1.01453-2.708,2.42743-3.02112,1.41278-.31311,2.89479-.01689,4.32751-.22079,1.8363-.26129,3.487-1.32655,5.32618-1.56629a12.12522,12.12522,0,0,1,4.60745.59209,12.49287,12.49287,0,0,0,4.6056.61848c1.548-.18381,3.54194,5.68253,3.51519,9.8144-.00509.783.15618,1.78836.9214,1.95448.94238.20462,1.48843-1.096,2.3854-1.45043a1.65941,1.65941,0,0,1,2.03535,1.08233,2.70537,2.70537,0,0,1-.51652,2.4227,7.995,7.995,0,0,1-1.93826,1.68137l.36942.30724a2.19815,2.19815,0,0,0,2.77479.34471,5.98871,5.98871,0,0,0,1.99224-2.26843,26.69384,26.69384,0,0,0,3.6542-8.75634A12.753,12.753,0,0,0,789.341,421.27757Z" transform="translate(-187.61029 -193.91472)" fill="#2f2e41"/><path d="M667.3382,408.20606c-2.60438,3.22683-3.50878,8.21211-.9597,11.48284,1.819,2.33394,5.21778,3.76754,5.49868,6.71322.24513,2.57037-2.14183,4.67342-2.51763,7.228a6.203,6.203,0,0,0,2.33976,5.42593,13.12179,13.12179,0,0,0,5.57986,2.49634,30.21934,30.21934,0,0,0,5.61151.75612c7.10153-6.40685,10.24333-17.42637,6.37236-26.3166-2.80194-6.435-8.92356-10.93986-15.70416-12.62131A19.78506,19.78506,0,0,0,667.3382,408.20606Z" transform="translate(-187.61029 -193.91472)" fill="#63ff6b"/><ellipse cx="676.92304" cy="416.13622" rx="4.77581" ry="3.3223" transform="translate(-15.32463 836.00915) rotate(-82.15499)" fill="#e6e6e6"/><ellipse cx="598.3556" cy="414.92156" rx="4.77581" ry="3.3223" transform="translate(-81.96481 757.12816) rotate(-82.15499)" fill="#3f3d56"/><ellipse cx="588.09275" cy="370.74798" rx="4.77581" ry="3.3223" transform="translate(-47.06668 708.8172) rotate(-82.15499)" fill="#ff6584"/><path d="M433.01613,626.00151a122.71561,122.71561,0,0,1,80.85651-12.16663,119.45588,119.45588,0,0,1,22.30342,6.61865c.88262.35859,1.4334-.76559,1.11311-1.44791-1.95987-4.17538-4.04126-8.64033-3.79212-13.3681.21441-4.06934,2.46589-8.36568,6.83021-9.05274,7.09648-1.11712,9.00473,7.91357,6.4535,12.86-2.14324,4.15541-6.11272,6.9896-9.8298,9.63448a.98647.98647,0,0,0,.995,1.70215,62.58947,62.58947,0,0,0,17.39244-11.07883q1.90392-1.70967,3.6619-3.57306a11.83686,11.83686,0,0,1,3.36571-2.961,6.47714,6.47714,0,0,1,8.93218,6.60911,8.55588,8.55588,0,0,1-3.8131,5.326c-3.97653,2.838-8.93555,4.35-13.68665,5.249-4.74385.89761-10.91412,1.61989-15.325-.86638-.80453-.45348-1.947.50726-1.34857,1.34857,5.604,7.87823,16.97168,9.38571,25.89969,9.67551,11.272.36589,22.07239-1.68947,32.77374-5.08888,7.2431-2.30085,14.47065-4.8711,22.01006-6.02965a50.87936,50.87936,0,0,1,21.43314,1.50807c13.20313,3.62777,25.68111,10.60526,39.61622,11.08982,8.92834.31046,17.59931-2.35287,26.48665-2.629,7.19237-.22343,14.93039,1.223,20.06383,6.65515.87315.924,2.26536-.47181,1.39393-1.39393-10.01553-10.5984-25.79244-6.76132-38.43381-5.15727a55.135,55.135,0,0,1-22.044-1.53438c-6.59154-1.81866-12.92423-4.42737-19.376-6.66694-6.45967-2.2423-13.133-4.13668-20.006-4.40042-7.3082-.28046-14.51638,1.3529-21.47589,3.43041-7.01663,2.09455-13.9052,4.69431-21.06164,6.29584a85.25632,85.25632,0,0,1-14.50574,1.88772,65.88513,65.88513,0,0,1-18.04625-1.2909c-4.84876-1.12787-10.0345-3.14112-13.02566-7.34618l-1.34858,1.34857c4.41382,2.48791,10.20528,2.08949,15.02461,1.3726,5.50157-.81841,11.3937-2.48872,15.977-5.75525,4.01981-2.865,6.57843-7.95989,3.3453-12.453a8.35912,8.35912,0,0,0-13.06457-.87295,64.42118,64.42118,0,0,1-21.80977,15.5994l.995,1.70215c3.93547-2.80034,8.09039-5.78781,10.42851-10.1399a12.45229,12.45229,0,0,0,.65874-10.68382,8.32856,8.32856,0,0,0-7.63623-5.42971c-4.58671.00065-8.09127,3.47016-9.30825,7.68949-1.78048,6.173.913,12.2752,3.4983,17.78311l1.11311-1.44791a124.67218,124.67218,0,0,0-82.75432-3.42163,120.8294,120.8294,0,0,0-21.92462,9.16833c-1.11708.60228-.12282,2.30483.995,1.70215Z" transform="translate(-187.61029 -193.91472)" fill="#e6e6e6"/><path d="M535.97581,620.24161c1.618,4.37134-1.47627,8.62593-3.04843,12.52346a12.65028,12.65028,0,0,0,1.04982,12.13314c.71662,1.0367,2.42595.05218,1.70215-.995a10.38981,10.38981,0,0,1-1.89847-5.8146,14.364,14.364,0,0,1,1.63966-6.14376c1.75236-3.7827,4.02912-7.97769,2.45615-12.22731-.4366-1.17952-2.34261-.66937-1.90088.52407Z" transform="translate(-187.61029 -193.91472)" fill="#e6e6e6"/><path d="M537.61917,619.25644a16.93742,16.93742,0,0,0-14.64159,5.82455c-1.81623,2.12306-3.252,4.71208-5.49361,6.43906-1.80512,1.39068-4.8,2.42085-6.815.85827-.9905-.76811-2.39556.61716-1.39391,1.39393,3.58751,2.782,8.28425.75625,11.038-2.21454,1.60217-1.72838,2.8461-3.74937,4.42294-5.49877a14.81167,14.81167,0,0,1,5.39686-3.81811,15.21914,15.21914,0,0,1,7.48627-1.01309C538.87758,621.37056,538.86739,619.3981,537.61917,619.25644Z" transform="translate(-187.61029 -193.91472)" fill="#e6e6e6"/><path d="M870.20565,527.47648H848.47422c-.584,0-3.801-1.70175-3.801-3.801v-12.072c-.10393-9.13106,29.78879-9.72873,29.90155,0v12.072C874.57481,525.77474,872.30486,527.47648,870.20565,527.47648Z" transform="translate(-187.61029 -193.91472)" fill="#e6e6e6"/><path d="M871.33016,503.42066a8.31749,8.31749,0,0,0-3.29131-.47174,2.233,2.233,0,0,0,.80587-.47223,3.26693,3.26693,0,0,1-.60654-.08172,1.41832,1.41832,0,0,1-.60311-.26983.67047.67047,0,0,1-.25291-.58648c.04062-.27612.29863-.50344.27213-.78126-.03036-.3184-.39773-.47335-.59434-.72563a1.03454,1.03454,0,0,1,.10373-1.24116,2.1385,2.1385,0,0,1,.67238-.52266,2.51135,2.51135,0,0,0-1.32.01913,1.46224,1.46224,0,0,0,.52141-1.51926,2.23267,2.23267,0,0,0-1.54173-1.42864,6.591,6.591,0,0,0-2.17509-.17565c.62028-.19057.52677-1.16231.05265-1.60533s-1.15225-.628-1.59936-1.09828-.41093-1.47419.23324-1.55229l-.07919-.22917a2.4796,2.4796,0,0,0-3.28963,1.79232c-.118.7353.10188,1.54865-.26706,2.19557-.47038.82478-1.61218.91809-2.55726.82667a3.66911,3.66911,0,0,0-2.74221.37428,1.61759,1.61759,0,0,0,1.07988,2.85986,7.49374,7.49374,0,0,0-1.84244.24319l.57949.22459a.9516.9516,0,0,1,.349.196.32485.32485,0,0,1,.07788.36824c-.09265.168-.33205.1622-.52177.13366l-1.25984-.18953a.47831.47831,0,1,1-.47584.80518,1.83958,1.83958,0,0,1,.308.50657.62277.62277,0,0,1-.05849.56923.81241.81241,0,0,1-.93817.11421c-.10256-.03942-.20574-.08534-.30971-.12734.00208.03645.00486.07294.00913.10949a1.74376,1.74376,0,0,0,.74328,1.19224,2.31222,2.31222,0,0,0-1.47505.77677,2.35284,2.35284,0,0,0-.09708,2.82155,4.11156,4.11156,0,0,0-2.02431-.33539,1.41318,1.41318,0,0,0-1.2405,1.4112c.1147.87821,1.20216,1.19932,2.08111,1.30819a85.10552,85.10552,0,0,0,20.81268-.0025,7.751,7.751,0,0,0,2.71365-.69034,2.79367,2.79367,0,0,0,1.57758-2.18273A2.83451,2.83451,0,0,0,871.33016,503.42066Z" transform="translate(-187.61029 -193.91472)" fill="#63ff6b"/><path d="M876.46042,513.59432a1.50028,1.50028,0,0,0-1.46892-1.16308c-.668.01756-1.26507.49459-1.921.39016-.54469-.08672-.97256-.56219-1.52037-.4896-.5017.06648-.77144.55681-1.14605.82058h-.96094c-.37411-.29448-.55794-.89114-1.07678-1.05843-.78159-.252-1.40864.62992-2.22718.78594a2.37177,2.37177,0,0,1-1.37368-.26231,4.104,4.104,0,0,0-1.32319-.448,1.09165,1.09165,0,0,0-1.06678.46843c.02544-.24955-.29884-.49425-.62815-.51a2.09356,2.09356,0,0,0-1.03742.31956,1.95989,1.95989,0,0,1-1.04377.29856c-.81774-.07122-1.21873-1.02669-2.041-1.03709-1.035-.01309-1.44908,1.46125-2.4726,1.33558-.53224-.06535-.81946-.54861-1.294-.75529a2.72135,2.72135,0,0,0-1.54773-.01511l-2.42077.45317a4.22941,4.22941,0,0,1-2.17116.02131c-.51925-.18786-1.02359-.5947-1.559-.43985-.46633.13486-.694.65719-1.18778.68433a2.32834,2.32834,0,0,1-.89316-.30567,1.37681,1.37681,0,0,0-1.47989.37329,8.3934,8.3934,0,0,0-.129,3.3733,3.26586,3.26586,0,0,0,.05643.71316l2.43475,9.74323c.28627,1.49428,1.02515,2.57473,2.5466,2.57473h23.6641a3.17144,3.17144,0,0,0,3.1148-2.57473l2.43475-9.74323c.00483-.02524.00794-.05032.01217-.0755A13.68607,13.68607,0,0,0,876.46042,513.59432Z" transform="translate(-187.61029 -193.91472)" fill="#ccc"/><path d="M847.52736,512.86108l.47313,6.15c.15771,2.05-.07574,4.07155.082,6.12156.08883,1.1546.56881,2.33766.65763,3.49226.01045.13585.22362.137.21308,0l-.47313-6.15-.47313-6.15-.26648-3.46381c-.01045-.13584-.22361-.137-.21307,0Z" transform="translate(-187.61029 -193.91472)" opacity="0.2" style="isolation:isolate"/><path d="M851.637,513.10457l.18437,6.06033.18437,6.06033.10351,3.40229c.00416.13679.21725.13738.21307,0l-.18437-6.06033-.18437-6.06033-.1035-3.40229C851.84588,512.96777,851.63279,512.96719,851.637,513.10457Z" transform="translate(-187.61029 -193.91472)" opacity="0.2" style="isolation:isolate"/><path d="M855.61837,513.46813l-.05607,5.85687-.05573,5.82137-.03161,3.30115a.1066.1066,0,0,0,.21308,0l.05607-5.85687.05573-5.82137.03161-3.30115a.1066.1066,0,0,0-.21308,0Z" transform="translate(-187.61029 -193.91472)" opacity="0.2" style="isolation:isolate"/><path d="M858.62613,513.289l.1166,5.9292.11592,5.8937.06564,3.3374a.1066.1066,0,0,0,.21307,0l-.11661-5.9292-.11592-5.8937-.06563-3.3374a.1066.1066,0,0,0-.21308,0Z" transform="translate(-187.61029 -193.91472)" opacity="0.2" style="isolation:isolate"/><path d="M863.00949,513.04549l.13332,6.08733.13332,6.08733.07462,3.40749a.1066.1066,0,0,0,.21308,0l-.13332-6.08733-.13332-6.08733-.07463-3.40749A.1066.1066,0,0,0,863.00949,513.04549Z" transform="translate(-187.61029 -193.91472)" opacity="0.2" style="isolation:isolate"/><path d="M866.64826,513.23005l.4647,6.13349.46337,6.11581.26115,3.44678c.01029.13588.22345.137.21307,0l-.4647-6.13349-.46337-6.11582-.26114-3.44677C866.851,513.09417,866.63788,513.09306,866.64826,513.23005Z" transform="translate(-187.61029 -193.91472)" opacity="0.2" style="isolation:isolate"/><path d="M870.69162,513.94483l.2802,5.61206c.0934,1.87069-.3814,3.74138-.288,5.61207l.15733,3.15125c.00682.13647.21993.13729.21308,0-.0934-1.87069.3814-3.74137.288-5.61206l-.28019-5.61206-.15734-3.15126C870.89788,513.80836,870.68476,513.80755,870.69162,513.94483Z" transform="translate(-187.61029 -193.91472)" opacity="0.2" style="isolation:isolate"/><ellipse cx="670.73529" cy="304.08637" rx="0.81679" ry="0.5682" fill="#e6e6e6"/><ellipse cx="675.92012" cy="305.36482" rx="0.81679" ry="0.5682" fill="#3f3d56"/><ellipse cx="668.67557" cy="308.13479" rx="0.81679" ry="0.5682" fill="#ff6584"/><ellipse cx="675.42977" cy="309.09278" rx="0.51621" ry="0.3591" fill="#e6e6e6"/><ellipse cx="678.70658" cy="309.90076" rx="0.51621" ry="0.3591" fill="#3f3d56"/><ellipse cx="674.12802" cy="311.65139" rx="0.51621" ry="0.3591" fill="#ff6584"/><ellipse cx="680.25947" cy="311.08148" rx="0.51621" ry="0.3591" fill="#e6e6e6"/><ellipse cx="683.53628" cy="311.88946" rx="0.51621" ry="0.3591" fill="#3f3d56"/><ellipse cx="678.95772" cy="313.64009" rx="0.51621" ry="0.3591" fill="#ff6584"/><ellipse cx="854.20775" cy="503.41211" rx="0.51621" ry="0.3591" transform="translate(51.30275 1086.99791) rotate(-82.15499)" fill="#e6e6e6"/><ellipse cx="852.96007" cy="506.54796" rx="0.51621" ry="0.3591" transform="matrix(0.13649, -0.99064, 0.99064, 0.13649, 47.11887, 1088.46973)" fill="#3f3d56"/><ellipse cx="851.85077" cy="501.7733" rx="0.51621" ry="0.3591" transform="translate(50.89095 1083.24787) rotate(-82.15499)" fill="#ff6584"/><ellipse cx="859.81873" cy="501.7075" rx="0.51621" ry="0.3591" transform="translate(57.83652 1091.08444) rotate(-82.15499)" fill="#e6e6e6"/><ellipse cx="858.57105" cy="504.84336" rx="0.51621" ry="0.3591" transform="translate(53.65263 1092.55627) rotate(-82.15499)" fill="#3f3d56"/><ellipse cx="857.46175" cy="500.0687" rx="0.51621" ry="0.3591" transform="translate(57.42471 1087.3344) rotate(-82.15499)" fill="#ff6584"/><ellipse cx="861.34103" cy="498.23803" rx="0.51621" ry="0.3591" transform="translate(62.58803 1089.59657) rotate(-82.15499)" fill="#3f3d56"/><ellipse cx="860.23173" cy="493.46337" rx="0.51621" ry="0.3591" transform="translate(66.36012 1084.37471) rotate(-82.15499)" fill="#ff6584"/><path d="M598.83679,360.101l15.05109,18.26408-6.21564,9.8489s-15.13338-23.65925-15.47483-24.47777a5.67478,5.67478,0,1,1,6.63938-3.63521Z" transform="translate(-187.61029 -193.91472)" fill="#ffb6b6"/><path d="M621.52208,342.37669c4.54273-2.51042,17.79371,36.206,3.85015,58.226a13.00624,13.00624,0,0,1-18.1545-6.32895L600,376.60837l11.56484-3.68692,5.523,6.3378-.76852-12.60905,6.57346-17.92055Z" transform="translate(-187.61029 -193.91472)" fill="#3f3d56"/><path d="M590.24548,393.36369l-22.05239-5.59211-3.42782,11.34651s23.725,1.75684,24.61183,1.765a5.67478,5.67478,0,1,0,.86838-7.51944Z" transform="translate(-187.61029 -193.91472)" fill="#ffb6b6"/><path d="M575.52924,341.90926c-15.72362,8.40224-22.61437,27.13308-32.26119,43.59425a13.00622,13.00622,0,0,0,12.69767,14.43642l18.87206.43482-2.36547-11.64467-6.31223-3.58642,7.46119-18.04928Z" transform="translate(-187.61029 -193.91472)" fill="#3f3d56"/><path d="M1012.38971,704.94551c-.76733,2.2727-823.95154.81158-824.77942-1.45551C188.37662,701.2118,1011.56073,702.67286,1012.38971,704.94551Z" transform="translate(-187.61029 -193.91472)" fill="#ccc"/><path d="M505.92193,693.82607a26.16382,26.16382,0,1,1,26.16383-26.16382A26.16383,26.16383,0,0,1,505.92193,693.82607Z" transform="translate(-187.61029 -193.91472)" fill="#e6e6e6"/><path d="M516.24548,665.0814h-7.74262v-7.74272a2.58094,2.58094,0,1,0-5.16187,0v7.74272h-7.74272a2.5809,2.5809,0,0,0,0,5.16179H503.341v7.7427a2.58094,2.58094,0,1,0,5.16187,0v-7.7427h7.74262a2.58089,2.58089,0,1,0,0-5.16179Z" transform="translate(-187.61029 -193.91472)" fill="#fff"/><path d="M582.46932,693.82607a26.16382,26.16382,0,1,1,26.16383-26.16382A26.16383,26.16383,0,0,1,582.46932,693.82607Z" transform="translate(-187.61029 -193.91472)" fill="#e6e6e6"/><path d="M592.79287,665.0814h-20.6472a2.5809,2.5809,0,0,0,0,5.16179h20.6472a2.5809,2.5809,0,1,0,0-5.16179Z" transform="translate(-187.61029 -193.91472)" fill="#fff"/><path d="M659.01672,693.82607a26.16382,26.16382,0,1,1,26.16383-26.16382A26.16384,26.16384,0,0,1,659.01672,693.82607Z" transform="translate(-187.61029 -193.91472)" fill="#63ff6b"/><path d="M673.736,666.41935,666.31866,655.593a2.19977,2.19977,0,1,0-3.62941,2.48663l4.79705,7.00173H648.69309a2.5809,2.5809,0,1,0,0,5.16179h19.02923l-5.03307,7.34623a2.19977,2.19977,0,0,0,3.62941,2.48662l7.41733-10.82634a2.90267,2.90267,0,0,0,0-2.83031Z" transform="translate(-187.61029 -193.91472)" fill="#fff"/><rect x="244.2591" y="83.4259" width="43.78725" height="9.36339" rx="4.68169" fill="#63ff6b"/><rect x="222.02106" y="102.15268" width="88.26334" height="9.36339" rx="4.68169" fill="#e6e6e6"/><rect x="222.02106" y="120.87945" width="88.26334" height="9.36339" rx="4.68169" fill="#e6e6e6"/><polygon points="300.737 236.406 298.737 236.406 298.737 161.363 156.08 161.363 156.08 159.363 300.737 159.363 300.737 236.406" fill="#e6e6e6"/><circle cx="133.79009" cy="154.54652" r="27.78" fill="#e6e6e6"/><path d="M317.61061,362.91944a3.08923,3.08923,0,0,1-2.47186-1.23631l-7.57881-10.10525a3.09007,3.09007,0,1,1,4.94423-3.70793l4.95831,6.61059,12.7348-19.10194a3.0902,3.0902,0,1,1,5.1424,3.42827L320.18206,361.5433a3.09146,3.09146,0,0,1-2.48544,1.37513C317.668,362.91893,317.63928,362.91944,317.61061,362.91944Z" transform="translate(-187.61029 -193.91472)" fill="#fff"/><polygon points="489.171 217.45 487.171 217.45 487.171 140.407 631.828 140.407 631.828 142.407 489.171 142.407 489.171 217.45" fill="#e6e6e6"/><circle cx="654.01074" cy="135.59052" r="27.78" fill="#e6e6e6"/><path d="M837.83126,343.96344a3.08929,3.08929,0,0,1-2.47187-1.23631l-7.57881-10.10525a3.09008,3.09008,0,1,1,4.94424-3.70793l4.95831,6.61059,12.7348-19.10194a3.0902,3.0902,0,1,1,5.1424,3.42827L840.40271,342.5873a3.09148,3.09148,0,0,1-2.48544,1.37513C837.8886,343.96293,837.85993,343.96344,837.83126,343.96344Z" transform="translate(-187.61029 -193.91472)" fill="#fff"/></svg>